<?xml version="1.0" encoding="UTF-8" standalone="no"?>
<svg
   width="190.22543mm"
   height="189.60146mm"
   viewBox="0 0 190.22543 189.60146"
   version="1.1"
   id="svg1"
   xml:space="preserve"
   xmlns="http://www.w3.org/2000/svg"
   xmlns:svg="http://www.w3.org/2000/svg"><defs
     id="defs1" /><g
     id="layer1"
     transform="translate(238.39871,37.340767)"><path
       style="fill:#f4e8e7"
       d="m -152.96162,151.93432 c -34.34876,-3.32354 -65.65756,-26.69096 -78.51248,-58.745857 -13.82081,-33.092088 -6.54907,-73.749801 18.20578,-99.785646 22.67556,-25.383075 59.60335,-36.273472 92.51273,-28.033412 38.80681,9.014666 69.953526,44.689698 72.189732,84.67948 3.683234,38.174593 -18.884743,76.936225 -53.668622,92.931445 -15.534,8.05207 -33.44842,10.19272 -50.72714,8.95399 z"
       id="path49" /><path
       style="fill:#ecd2d2"
       d="m -153.09391,151.68267 c -36.97494,-3.46436 -70.30323,-30.66593 -80.98621,-66.250086 -4.63462,-13.893018 -4.67115,-28.838173 -3.05743,-43.23191 6.12233,-38.5021802 38.13654,-71.410535 76.71446,-77.72079 29.46201,-5.56565 61.187085,3.771717 82.733326,24.675569 19.668668,18.6828033 31.114796,46.113081 28.987751,73.323433 -1.00916,41.496084 -33.728822,79.298954 -74.239347,87.499794 -9.87313,2.32396 -20.08819,2.19307 -30.15255,1.70399 z"
       id="path48" /><path
       style="fill:#d5cfce"
       d="m -153.2262,151.66973 c -34.41478,-3.35446 -65.67332,-27.00961 -78.30967,-59.202323 -7.24425,-17.441943 -8.20108,-37.147467 -4.43583,-55.521739 8.07726,-37.44669242 40.88369,-67.795953 78.82333,-72.962925 33.14194,-5.183806 68.16535,8.978971 88.660586,35.50237233 14.491533,18.34514467 21.541011,42.04138067 19.733505,65.32973267 -2.39473,34.331843 -25.112771,66.170532 -56.832041,79.563132 -14.89935,6.69869 -31.4573,8.51808 -47.63988,7.29175 z"
       id="path47" /><path
       style="fill:#efada9"
       d="m -152.69704,151.66973 c -35.59303,-3.35735 -67.8429,-28.45259 -79.85532,-62.1214 -12.62198,-34.00931 -3.32057,-74.919621 23.3024,-99.702189 27.28928,-27.568736 72.28974,-34.79695 106.97951,-17.51733 32.762002,15.428141 55.222513,50.88088 53.653532,87.261759 -0.04685,39.939902 -28.990192,77.29114 -67.157522,88.41636 -11.92185,3.7826 -24.50604,4.45967 -36.9226,3.6628 z"
       id="path46" /><path
       style="fill:#d0b1b1"
       d="m -152.69704,151.66973 c -35.59303,-3.35735 -67.8429,-28.45259 -79.85532,-62.1214 -12.86621,-34.606742 -2.92718,-76.311307 24.64487,-101.00324 18.00873,-16.886014 42.76015,-26.583861 67.51982,-25.141109 35.60153,0.04913 69.44317,23.42768 83.689486,55.863655 6.856237,14.5531 8.760833,30.869513 7.648643,46.79005 -2.696808,38.301784 -31.798398,72.589144 -68.728159,82.564734 -11.35597,3.23889 -23.18345,3.79677 -34.91934,3.04731 z M -88.219118,-7.3203019 c -0.580957,-5.3699271 -17.792702,-12.9538181 -9.345693,-4.7647501 2.438786,1.84495 6.503616,5.4514151 9.345693,4.7647501 z"
       id="path45" /><path
       style="fill:#f3a49a"
       d="m -153.35849,151.579 c -35.547,-3.74502 -67.85999,-28.90646 -79.39698,-62.878021 -12.80334,-34.725756 -2.02368,-76.247964 25.54268,-100.80467 18.74415,-17.329134 44.61605,-26.402905 70.07878,-24.441487 40.252461,1.705624 76.888529,32.60573 85.864253,71.795073 3.315584,13.248018 3.118646,27.289865 0.885352,40.679432 -6.977495,36.383583 -37.114293,66.896623 -73.498015,74.087973 -9.64774,2.20398 -19.65198,2.08292 -29.47607,1.5617 z M -88.219118,-7.3203019 c -0.580957,-5.3699271 -17.792702,-12.9538181 -9.345693,-4.7647501 2.438786,1.84495 6.503616,5.4514151 9.345693,4.7647501 z"
       id="path44" /><path
       style="fill:#ed968d"
       d="m -153.35849,151.579 c -35.547,-3.74502 -67.85999,-28.90646 -79.39698,-62.878021 -12.90024,-35.013876 -1.87709,-77.058179 26.34481,-101.410067 28.88358,-26.845384 75.1827,-31.739017 109.265787,-12.103909 30.093471,16.6068875 50.465211,50.730441 48.138574,85.376908 0.03545,39.713029 -29.358884,76.783799 -67.346081,87.514739 -11.95661,3.83939 -24.56231,4.31427 -37.00611,3.50035 z M -85.72503,-5.3132122 c -1.248542,-5.1706928 -14.35203,-15.4061188 -16.3751,-10.0259628 4.283183,4.198878 10.356696,9.9769735 16.3751,10.0259628 z"
       id="path43" /><path
       style="fill:#b3a9a9"
       d="m -153.35849,151.579 c -37.09892,-3.87935 -70.62736,-31.23121 -80.80287,-67.290509 -11.14695,-35.460269 1.83123,-76.6191258 30.87144,-99.71447 28.88339,-24.336702 72.80295,-28.295371 105.626216,-9.655225 30.345721,16.5045067 50.883171,50.647126 48.650958,85.446174 0.150331,40.57308 -30.431924,78.30195 -69.483714,88.33221 -11.30418,3.3455 -23.17835,3.60133 -34.86203,2.88182 z M -84.713276,-5.0099628 c -2.339438,-6.1571702 -12.286348,-14.8429822 -18.586524,-11.9307542 3.15978,5.509035 12.280797,13.4771819 18.586524,11.9307542 z"
       id="path42" /><path
       style="fill:#d69090"
       d="m -153.2262,151.40515 c -33.51694,-3.27452 -64.04105,-25.88925 -77.20232,-56.849064 -5.84671,-13.24276 -8.1022,-27.772722 -7.19419,-42.184804 0.58564,-23.247008 11.43072,-45.9730365 28.02899,-62.1045449 19.19031,-19.2552051 46.92129,-29.0129141 73.93739,-26.7793381 34.64789,2.322928 66.514768,25.819926 79.783259,57.76787 7.267942,16.322618 8.162275,34.769871 5.921229,52.28939 -5.186467,30.639131 -26.422735,57.809891 -54.912478,70.230711 -15.06017,7.09305 -31.91101,8.83564 -48.36188,7.62978 z M -84.713276,-5.0099628 c -2.339438,-6.1571702 -12.286348,-14.8429822 -18.586524,-11.9307542 3.15978,5.509035 12.280797,13.4771819 18.586524,11.9307542 z"
       id="path41" /><path
       style="fill:#f08777"
       d="m -153.2262,151.40515 c -33.51694,-3.27452 -64.04105,-25.88925 -77.20232,-56.849064 -5.84671,-13.24276 -8.1022,-27.772722 -7.19419,-42.184804 0.78675,-29.964654 18.4696,-58.4200838 43.55774,-74.370622 30.47223,-19.981548 72.57735,-19.534156 102.746847,0.82251 27.379755,17.6240318 44.392342,50.216709 42.40905,82.8216 -1.047822,34.381898 -22.835097,67.10787 -54.210517,81.28237 -15.43768,7.77819 -33.04479,9.74349 -50.10661,8.47801 z M -84.713276,-5.0099628 c -2.339438,-6.1571702 -12.286348,-14.8429822 -18.586524,-11.9307542 3.15978,5.509035 12.280797,13.4771819 18.586524,11.9307542 z"
       id="path40" /><path
       style="fill:#fdee00"
       d="m -153.2262,151.40515 c -33.51694,-3.27452 -64.04105,-25.88925 -77.20232,-56.849064 -5.84671,-13.24276 -8.1022,-27.772722 -7.19419,-42.184804 0.91426,-33.184446 22.34984,-64.437228 51.89943,-79.056945 32.73061,-17.075548 75.24712,-11.979052 103.223006,12.059277 23.302047,19.2440169 36.244494,50.092323 33.430453,80.218536 -2.626097,32.969297 -23.856692,63.67778 -54.049739,77.33499 -15.45275,7.7813 -33.02971,9.7415 -50.10664,8.47801 z M -83.920374,-3.6632038 c -0.89203,-7.6928742 -10.181764,-12.8448792 -17.221116,-15.1298192 -9.0634,0.774403 5.108568,10.5008476 8.656825,12.5428573 2.413191,1.1743803 6.065877,3.9881378 8.564291,2.5869619 z"
       id="path39" /><path
       style="fill:#ab9595"
       d="m -153.2262,151.40515 c -33.51694,-3.27452 -64.04105,-25.88925 -77.20232,-56.849064 -5.84671,-13.24276 -8.1022,-27.772722 -7.19419,-42.184804 0.91426,-33.184446 22.34984,-64.437228 51.89943,-79.056945 32.73061,-17.075548 75.24712,-11.979052 103.223006,12.059277 23.302047,19.2440169 36.244494,50.092323 33.430453,80.218536 -2.626097,32.969297 -23.856692,63.67778 -54.049739,77.33499 -15.45275,7.7813 -33.02971,9.7415 -50.10664,8.47801 z m 48.21474,-62.493819 c -8.80936,-8.825857 -17.70532,-17.568802 -26.38257,-26.52448 6.86822,-4.910781 15.36727,-7.906317 22.8709,-12.065159 10.415971,-5.246555 20.890905,-10.381324 31.222633,-15.791636 C -121.37024,26.386554 -165.507,18.519403 -209.60174,10.481973 c 7.38396,7.705495 15.0331,15.152924 22.56023,22.718474 16.57991,3.352705 33.3619,5.786816 49.87968,9.385882 -4.43585,5.503699 -15.37552,8.120396 -22.20282,12.49385 -8.23862,3.217633 7.14538,9.98241 9.13597,14.667748 15.11798,15.165801 30.33862,30.229445 45.4059,45.445663 8.732642,0 17.465285,0 26.197927,0 -8.795536,-8.76075 -17.591071,-17.521506 -26.386607,-26.282259 z m 21.091086,-92.5745348 c -0.89203,-7.6928742 -10.181764,-12.8448792 -17.221116,-15.1298192 -9.0634,0.774403 5.108568,10.5008476 8.656825,12.5428573 2.413191,1.1743803 6.065877,3.9881378 8.564291,2.5869619 z"
       id="path38" /><path
       style="fill:#f9d109"
       d="m -152.82933,151.41074 c -32.77582,-3.31235 -63.01561,-24.61892 -76.48058,-54.77994 -16.46982,-34.576476 -8.56815,-78.9382 19.05984,-105.5478356 25.95066,-26.9930694 68.61729,-35.3078414 102.97723,-20.7233584 35.034029,14.033293 59.839878,50.692003 58.412339,88.604475 0.273872,41.075799 -30.215986,79.567609 -69.888719,89.612159 -11.06997,3.15771 -22.66007,3.38901 -34.08011,2.8345 z m 47.81787,-62.499409 c -8.80936,-8.825857 -17.70532,-17.568802 -26.38257,-26.52448 6.86822,-4.910781 15.36727,-7.906317 22.8709,-12.065159 10.415971,-5.246555 20.890905,-10.381324 31.222633,-15.791636 C -121.37024,26.386554 -165.507,18.519403 -209.60174,10.481973 c 7.38396,7.705495 15.0331,15.152924 22.56023,22.718474 16.57991,3.352705 33.3619,5.786816 49.87968,9.385882 -4.43585,5.503699 -15.37552,8.120396 -22.20282,12.49385 -8.23862,3.217633 7.14538,9.98241 9.13597,14.667748 15.11798,15.165801 30.33862,30.229445 45.4059,45.445663 8.732642,0 17.465285,0 26.197927,0 -8.795536,-8.76075 -17.591071,-17.521506 -26.386607,-26.282259 z m 21.091086,-92.5745348 c -0.89203,-7.6928742 -10.181764,-12.8448792 -17.221116,-15.1298192 -9.0634,0.774403 5.108568,10.5008476 8.656825,12.5428573 2.413191,1.1743803 6.065877,3.9881378 8.564291,2.5869619 z"
       id="path37" /><path
       style="fill:#ed7668"
       d="m -152.82933,151.41074 c -32.77582,-3.31235 -63.01561,-24.61892 -76.48058,-54.77994 -16.46982,-34.576476 -8.56815,-78.9382 19.05984,-105.5478356 25.95066,-26.9930694 68.61729,-35.3078414 102.97723,-20.7233584 35.034029,14.033293 59.839878,50.692003 58.412339,88.604475 0.273872,41.075799 -30.215986,79.567609 -69.888719,89.612159 -11.06997,3.15771 -22.66007,3.38901 -34.08011,2.8345 z m 49.20521,-61.423675 c -9.06313,-9.213333 -18.48588,-18.108716 -27.2969,-27.550046 6.32517,-4.573817 14.73557,-7.663411 21.87381,-11.618789 10.751971,-5.41959 21.597519,-10.667229 32.217654,-16.339949 -44.310034,-8.307265 -88.739484,-16.216593 -133.100084,-24.197574 7.38593,7.928148 15.21283,15.435048 22.83677,23.134192 16.34095,3.225957 32.79334,5.879607 49.14636,9.041401 -1.13989,4.505889 -13.38617,7.188772 -18.51462,10.964748 -14.25605,3.338919 3.87917,11.810937 7.3871,17.80976 14.73106,14.762159 29.50956,29.476882 44.26658,44.213072 8.907637,0.001 17.815275,0.003 26.722912,0.004 -8.513194,-8.48694 -17.026388,-16.973877 -25.539582,-25.460815 z m 19.703746,-93.6502688 c -0.89203,-7.6928742 -10.181764,-12.8448792 -17.221116,-15.1298192 -9.0634,0.774403 5.108568,10.5008476 8.656825,12.5428573 2.413191,1.1743803 6.065877,3.9881378 8.564291,2.5869619 z"
       id="path36" /><path
       style="fill:#d66e6e"
       d="m -152.82933,151.41074 c -32.77582,-3.31235 -63.01561,-24.61892 -76.48058,-54.77994 -16.46982,-34.576476 -8.56815,-78.9382 19.05984,-105.5478356 25.17635,-26.1492514 66.05347,-34.8523774 99.85713,-21.9511544 36.605808,13.140675 63.018432,50.761197 61.532439,89.832271 0.273872,41.075799 -30.215986,79.567609 -69.888719,89.612159 -11.06997,3.15771 -22.66007,3.38901 -34.08011,2.8345 z m 49.20521,-61.423675 c -9.06313,-9.213333 -18.48588,-18.108716 -27.2969,-27.550046 6.32517,-4.573817 14.73557,-7.663411 21.87381,-11.618789 10.751971,-5.41959 21.597519,-10.667229 32.217654,-16.339949 -44.310034,-8.307265 -88.739484,-16.216593 -133.100084,-24.197574 7.38593,7.928148 15.21283,15.435048 22.83677,23.134192 16.34095,3.225957 32.79334,5.879607 49.14636,9.041401 -1.13989,4.505889 -13.38617,7.188772 -18.51462,10.964748 -14.25605,3.338919 3.87917,11.810937 7.3871,17.80976 14.73106,14.762159 29.50956,29.476882 44.26658,44.213072 8.907637,0.001 17.815275,0.003 26.722912,0.004 -8.513194,-8.48694 -17.026388,-16.973877 -25.539582,-25.460815 z m 20.380207,-92.7976473 c -0.585223,-9.3211427 -12.890516,-16.5851647 -21.955457,-16.6308317 0.2003,7.515404 11.927046,13.5592995 19.126196,16.642415 0.896815,0.014376 2.118345,1.1174705 2.829261,-0.011583 z"
       id="path35" /><path
       style="fill:#f4af0c"
       d="m -152.82933,151.41074 c -33.84675,-3.34878 -64.86668,-26.09214 -77.75529,-57.633083 -14.37755,-33.146314 -6.96446,-74.27951 18.13111,-100.2911981 23.88142,-26.2859889 63.23716,-36.9788339 97.05582,-25.9537989 38.402715,11.382624 67.283819,49.430705 66.505647,89.670414 0.886641,39.751233 -26.83231,77.833626 -64.646657,89.833466 -12.62686,4.35462 -26.04567,5.14448 -39.29063,4.3742 z m 49.20521,-61.423675 c -9.06313,-9.213333 -18.48588,-18.108716 -27.2969,-27.550046 6.32517,-4.573817 14.73557,-7.663411 21.87381,-11.618789 10.751971,-5.41959 21.597519,-10.667229 32.217654,-16.339949 -44.310034,-8.307265 -88.739484,-16.216593 -133.100084,-24.197574 7.38593,7.928148 15.21283,15.435048 22.83677,23.134192 16.34095,3.225957 32.79334,5.879607 49.14636,9.041401 -1.13989,4.505889 -13.38617,7.188772 -18.51462,10.964748 -14.25605,3.338919 3.87917,11.810937 7.3871,17.80976 14.73106,14.762159 29.50956,29.476882 44.26658,44.213072 8.907637,0.001 17.815275,0.003 26.722912,0.004 -8.513194,-8.48694 -17.026388,-16.973877 -25.539582,-25.460815 z m 20.380207,-92.7976473 c -0.585223,-9.3211427 -12.890516,-16.5851647 -21.955457,-16.6308317 0.2003,7.515404 11.927046,13.5592995 19.126196,16.642415 0.896815,0.014376 2.118345,1.1174705 2.829261,-0.011583 z"
       id="path34" /><path
       style="fill:#ec6756"
       d="m -152.82933,151.41074 c -33.84675,-3.34878 -64.86668,-26.09214 -77.75529,-57.633083 -14.37755,-33.146314 -6.96446,-74.27951 18.13111,-100.2911981 23.88142,-26.2859889 63.23716,-36.9788339 97.05582,-25.9537989 38.402715,11.382624 67.283819,49.430705 66.505647,89.670414 0.886641,39.751233 -26.83231,77.833626 -64.646657,89.833466 -12.62686,4.35462 -26.04567,5.14448 -39.29063,4.3742 z m 74.705844,-35.86952 C -95.435001,97.517664 -113.59992,80.321738 -130.87113,62.259423 -113.05491,52.409294 -94.350799,44.04947 -76.364746,34.442859 -120.23715,26.095755 -164.30247,18.471887 -208.24338,10.376988 c -2.84526,1.806416 8.11816,9.219062 10.94893,13.096247 3.62617,3.323393 6.85691,7.402282 10.72925,10.255354 16.34859,3.169622 32.85647,5.63702 49.11632,9.171669 -6.29953,5.040908 -15.5641,8.081584 -22.99277,12.391887 -6.74983,3.466414 7.88031,10.05893 9.9873,14.752909 15.20549,15.250583 30.4586,30.453576 45.69056,45.677706 8.879565,-0.0453 17.765783,0.12684 26.640304,-0.18154 z M -83.243913,-2.8105823 c -0.585223,-9.3211427 -12.890516,-16.5851647 -21.955457,-16.6308317 0.2003,7.515404 11.927046,13.5592995 19.126196,16.642415 0.896815,0.014376 2.118345,1.1174705 2.829261,-0.011583 z"
       id="path33" /><path
       style="fill:#ef8f0e"
       d="m -152.82933,151.41074 c -33.84675,-3.34878 -64.86668,-26.09214 -77.75529,-57.633083 -14.56387,-33.56422 -6.77182,-75.359534 19.11708,-101.2717638 26.15478,-28.2590682 70.45518,-37.3382782 105.58529,-21.4604692 34.14101,14.482315 58.267739,50.429048 56.998321,87.739778 0.177983,39.944577 -28.412918,77.728028 -66.696321,88.896348 -12.0465,3.85757 -24.70291,4.4143 -37.24908,3.72919 z m 74.705844,-35.86952 C -95.435001,97.517664 -113.59992,80.321738 -130.87113,62.259423 -113.05491,52.409294 -94.350799,44.04947 -76.364746,34.442859 -120.23715,26.095755 -164.30247,18.471887 -208.24338,10.376988 c -2.84526,1.806416 8.11816,9.219062 10.94893,13.096247 3.62617,3.323393 6.85691,7.402282 10.72925,10.255354 16.34859,3.169622 32.85647,5.63702 49.11632,9.171669 -6.29953,5.040908 -15.5641,8.081584 -22.99277,12.391887 -6.74983,3.466414 7.88031,10.05893 9.9873,14.752909 15.20549,15.250583 30.4586,30.453576 45.69056,45.677706 8.879565,-0.0453 17.765783,0.12684 26.640304,-0.18154 z M -82.339511,-1.6482648 c 0.196783,-9.5271492 -11.598751,-15.9192242 -19.894519,-18.2416442 -11.67818,-0.946989 3.582903,10.8050022 7.531012,13.1485725 3.780184,2.1821222 7.810564,5.2663434 12.363507,5.0930717 z"
       id="path32" /><path
       style="fill:#ea5749"
       d="m -152.82933,151.41074 c -33.84675,-3.34878 -64.86668,-26.09214 -77.75529,-57.633083 -14.56387,-33.56422 -6.77182,-75.359534 19.11708,-101.2717638 26.15478,-28.2590682 70.45518,-37.3382782 105.58529,-21.4604692 34.14101,14.482315 58.267739,50.429048 56.998321,87.739778 0.177983,39.944577 -28.412918,77.728028 -66.696321,88.896348 -12.0465,3.85757 -24.70291,4.4143 -37.24908,3.72919 z M -77.952246,115.5075 C -95.330251,97.536873 -113.51388,80.31139 -130.73662,62.218183 c 17.84071,-9.747061 36.608872,-18.132704 54.55097,-27.846687 -44.61956,-8.485945 -89.41378,-16.345522 -134.119,-24.4323625 7.19302,8.4540565 15.57565,16.0190935 23.54217,23.7999695 16.42545,3.469617 33.22922,5.564425 49.51167,9.415377 -8.37098,5.049765 -17.79903,8.901448 -26.43826,13.761295 19.47704,19.747555 39.24674,39.205534 58.88162,58.796505 8.950884,-0.0517 17.911917,0.15859 26.855204,-0.20478 z M -82.339511,-1.6482648 c 0.196783,-9.5271492 -11.598751,-15.9192242 -19.894519,-18.2416442 -11.67818,-0.946989 3.582903,10.8050022 7.531012,13.1485725 3.780184,2.1821222 7.810564,5.2663434 12.363507,5.0930717 z"
       id="path31" /><path
       style="fill:#d55151"
       d="m -152.82933,151.41074 c -33.84675,-3.34878 -64.86668,-26.09214 -77.75529,-57.633083 -14.56387,-33.56422 -6.77182,-75.359534 19.11708,-101.2717638 26.10703,-28.2082492 70.31202,-37.2694882 105.39747,-21.5392672 34.654826,14.602791 59.063607,51.359527 57.078513,89.194304 -0.252144,40.23361 -29.915368,77.80317 -68.687453,88.12687 -11.40483,3.38546 -23.34965,3.72105 -35.15032,3.12294 z M -77.952246,115.5075 C -95.330251,97.536873 -113.51388,80.31139 -130.73662,62.218183 c 17.84071,-9.747061 36.608872,-18.132704 54.55097,-27.846687 -44.61956,-8.485945 -89.41378,-16.345522 -134.119,-24.4323625 7.19302,8.4540565 15.57565,16.0190935 23.54217,23.7999695 16.42545,3.469617 33.22922,5.564425 49.51167,9.415377 -8.37098,5.049765 -17.79903,8.901448 -26.43826,13.761295 19.47704,19.747555 39.24674,39.205534 58.88162,58.796505 8.950884,-0.0517 17.911917,0.15859 26.855204,-0.20478 z M -81.119601,-1.1000021 c -0.951146,-9.7013229 -11.427086,-16.0886709 -19.997129,-18.9346769 -5.09373,-2.772004 -11.04303,0.09336 -4.61824,4.605077 6.789433,6.0210652 15.167013,14.50693669 24.615369,14.3295999 z"
       id="path30" /><path
       style="fill:#eb700d"
       d="m -152.82933,151.41074 c -32.77582,-3.31235 -63.01561,-24.61892 -76.48058,-54.77994 -15.25859,-32.178518 -9.70743,-72.97709 13.89351,-99.696881 19.21884,-23.131964 49.91303,-35.823349 79.86392,-33.133012 35.599174,2.521857 68.294725,27.1701145 80.664839,60.648341 10.955743,29.053349 6.273164,63.26722 -11.924764,88.414992 -18.120297,25.20397 -49.227615,40.47375 -80.304675,38.75149 -1.90501,-0.0208 -3.81382,-0.0218 -5.71225,-0.20499 z M -77.952246,115.5075 C -95.330251,97.536873 -113.51388,80.31139 -130.73662,62.218183 c 17.84071,-9.747061 36.608872,-18.132704 54.55097,-27.846687 -44.61956,-8.485945 -89.41378,-16.345522 -134.119,-24.4323625 7.19302,8.4540565 15.57565,16.0190935 23.54217,23.7999695 16.42545,3.469617 33.22922,5.564425 49.51167,9.415377 -8.37098,5.049765 -17.79903,8.901448 -26.43826,13.761295 19.47704,19.747555 39.24674,39.205534 58.88162,58.796505 8.950884,-0.0517 17.911917,0.15859 26.855204,-0.20478 z M -81.119601,-1.1000021 c -0.951146,-9.7013229 -11.427086,-16.0886709 -19.997129,-18.9346769 -5.09373,-2.772004 -11.04303,0.09336 -4.61824,4.605077 6.789433,6.0210652 15.167013,14.50693669 24.615369,14.3295999 z"
       id="path29" /><path
       style="fill:#e94737"
       d="m -152.82933,151.41074 c -32.77582,-3.31235 -63.01561,-24.61892 -76.48058,-54.77994 -15.25859,-32.178518 -9.70743,-72.97709 13.89351,-99.696881 19.21884,-23.131964 49.91303,-35.823349 79.86392,-33.133012 35.599174,2.521857 68.294725,27.1701145 80.664839,60.648341 10.955743,29.053349 6.273164,63.26722 -11.924764,88.414992 -18.120297,25.20397 -49.227615,40.47375 -80.304675,38.75149 -1.90501,-0.0208 -3.81382,-0.0218 -5.71225,-0.20499 z m 75.034234,-35.72821 C -94.984045,97.488926 -113.27382,80.348334 -130.54414,62.22865 -112.54932,52.523734 -93.839704,43.997098 -75.768451,34.363377 -120.28377,25.798056 -165.02115,18.116005 -209.62301,9.8765891 c 0.44908,3.6362419 9.06148,9.8780529 12.87213,14.4314799 3.38051,3.10036 6.37154,6.93075 9.99671,9.572507 16.33371,3.449886 33.01843,5.447076 49.20546,9.409711 -8.50071,4.895888 -17.64836,8.643293 -26.12853,13.591708 19.43851,19.787247 39.04559,39.415199 58.80136,58.885835 9.008211,0.35632 18.075846,0.34121 27.080784,-0.0853 z M -81.119601,-1.1000021 c -0.951146,-9.7013229 -11.427086,-16.0886709 -19.997129,-18.9346769 -5.09373,-2.772004 -11.04303,0.09336 -4.61824,4.605077 6.789433,6.0210652 15.167013,14.50693669 24.615369,14.3295999 z"
       id="path28" /><path
       style="fill:#966666"
       d="m -152.82933,151.41074 c -32.77582,-3.31235 -63.01561,-24.61892 -76.48058,-54.77994 -15.07086,-31.820051 -9.86376,-72.112411 13.15272,-98.8151771 18.88406,-23.2882089 49.30426,-36.3115089 79.18815,-34.1359599 34.25498,1.980794 66.295432,24.303134 79.929451,55.809298 15.514478,33.869512 7.946556,76.57616 -18.015068,103.237939 -18.818711,19.73438 -46.298773,30.61441 -73.539663,28.87411 -1.41286,-0.0262 -2.82762,-0.0472 -4.23501,-0.19027 z M -77.580736,115.7638 C -94.964977,97.656674 -113.1912,80.365832 -130.5442,62.228841 c 18.07827,-9.728866 36.83477,-18.340233 55.0245,-27.928961 -44.81191,-8.382896 -89.73391,-16.270372 -134.58038,-24.5316729 1.4045,3.8425499 9.35749,10.0131699 13.59654,14.7871299 3.30425,3.006307 6.19811,6.781855 9.74934,9.325233 16.33372,3.449888 33.01845,5.44708 49.20549,9.409717 -8.50071,4.895888 -17.64836,8.643293 -26.12853,13.591708 19.43851,19.787247 39.04559,39.415199 58.80136,58.885835 9.086677,0.30666 18.209077,0.31395 27.295144,-0.004 z M -80.220103,-0.0513561 c 0.195135,-7.3262894 -7.317958,-13.0895699 -12.988256,-16.9722949 -4.025774,-3.628063 -23.259811,-8.273291 -13.778551,1.114015 7.571174,6.6787331 16.336283,15.44340841 26.766787,15.8582799 z"
       id="path27" /><path
       style="fill:#e53527"
       d="m -152.56474,151.4024 c -33.64117,-3.29624 -64.4062,-25.79801 -77.6521,-56.89734 -12.10272,-27.499857 -9.48731,-60.601145 6.41509,-86.0484085 17.5504,-29.1159775 51.67591,-47.0588345 85.61994,-44.8144015 34.69603,1.461643 67.351736,23.979608 81.142221,55.846711 15.102472,33.044215 8.420455,74.5682 -16.365475,101.180929 -19.644876,22.14227 -49.790846,33.52314 -79.159676,30.73251 z m 74.984004,-35.6386 C -94.964977,97.656674 -113.1912,80.365832 -130.5442,62.228841 c 18.07827,-9.728866 36.83477,-18.340233 55.0245,-27.928961 -44.81191,-8.382896 -89.73391,-16.270372 -134.58038,-24.5316729 1.4045,3.8425499 9.35749,10.0131699 13.59654,14.7871299 3.30425,3.006307 6.19811,6.781855 9.74934,9.325233 16.33372,3.449888 33.01845,5.44708 49.20549,9.409717 -8.50071,4.895888 -17.64836,8.643293 -26.12853,13.591708 19.43851,19.787247 39.04559,39.415199 58.80136,58.885835 9.086677,0.30666 18.209077,0.31395 27.295144,-0.004 z M -80.220103,-0.0513561 c 0.195135,-7.3262894 -7.317958,-13.0895699 -12.988256,-16.9722949 -4.025774,-3.628063 -23.259811,-8.273291 -13.778551,1.114015 7.571174,6.6787331 16.336283,15.44340841 26.766787,15.8582799 z"
       id="path26" /><path
       style="fill:#e64e0c"
       d="m -152.56474,151.4024 c -33.64117,-3.29624 -64.4062,-25.79801 -77.6521,-56.89734 -12.10272,-27.499857 -9.48731,-60.601145 6.41509,-86.0484085 17.37967,-28.7642495 50.94384,-46.7600375 84.54586,-44.8285745 35.81609,0.928265 69.434576,24.677772 83.04025,57.695684 14.0411,32.745089 7.125563,73.220004 -17.189424,99.346129 -19.644876,22.14227 -49.790846,33.52314 -79.159676,30.73251 z m 74.88629,-35.58302 C -94.875453,97.554188 -113.24409,80.402278 -130.5442,62.228841 -112.46636,52.457105 -93.21961,43.670514 -75.267741,34.253373 -120.26904,25.9422 -165.38873,18.149352 -210.34125,9.5715668 c 2.35367,4.7464052 10.93683,11.4844322 15.60859,16.7361422 6.16896,9.630467 17.70607,9.169849 27.74668,11.234284 9.77792,2.0597 19.82891,3.042563 29.43727,5.748294 -8.50071,4.895888 -17.64836,8.643293 -26.12853,13.591708 19.41055,19.732805 38.97863,39.313042 58.6207,58.815785 9.04147,0.76178 18.295943,0.42931 27.37809,0.1216 z M -78.90714,1.2917523 c -0.427142,-9.336518 -9.813806,-16.5721453 -17.801636,-20.5416403 -4.717744,-3.500025 -22.672094,-5.736577 -11.561964,2.848895 8.03078,7.774112 17.26903,15.4033576 28.347735,18.0103711 z"
       id="path25" /><path
       style="fill:#d42f2f"
       d="m -152.56474,151.4024 c -33.64117,-3.29624 -64.4062,-25.79801 -77.6521,-56.89734 -12.10272,-27.499857 -9.48731,-60.601145 6.41509,-86.0484085 17.37967,-28.7642495 50.94384,-46.7600375 84.54586,-44.8285745 35.81609,0.928265 69.434576,24.677772 83.04025,57.695684 14.0411,32.745089 7.125563,73.220004 -17.189424,99.346129 -19.644876,22.14227 -49.790846,33.52314 -79.159676,30.73251 z m 74.932834,-35.62957 C -94.622963,97.411235 -113.20411,80.539408 -130.27691,62.249437 -112.14939,52.466903 -93.349705,43.849525 -75.098859,34.249449 -120.00002,25.781886 -165.07268,17.928651 -210.02852,9.6386155 c 1.50159,5.0076065 12.05921,12.9077095 17.26732,18.7793295 6.13372,8.473999 17.38185,6.932215 26.4838,9.416503 9.45605,1.929056 19.42101,3.022351 28.56501,5.488044 -8.60251,4.772978 -17.68549,8.656585 -26.22944,13.540763 19.3711,19.630642 38.70914,39.322139 58.62115,58.402125 8.488095,1.8496 17.766718,0.42977 26.553239,0.62029 z M -78.90714,1.2917523 c -0.427142,-9.336518 -9.813806,-16.5721453 -17.801636,-20.5416403 -4.717744,-3.500025 -22.672094,-5.736577 -11.561964,2.848895 8.03078,7.774112 17.26903,15.4033576 28.347735,18.0103711 z"
       id="path24" /><path
       style="fill:#e22c10"
       d="m -152.56474,151.4024 c -33.64117,-3.29624 -64.4062,-25.79801 -77.6521,-56.89734 -13.62017,-30.850307 -8.55079,-68.869006 12.88963,-94.95233045 22.6284,-29.48527355 63.65497,-43.03775355 99.3279,-32.47560155 34.199673,9.175317 61.60858,39.1385814 67.512069,74.075591 6.910733,37.32108 -11.336744,77.880721 -44.213019,97.038891 -17.18278,10.67182 -37.80438,14.89008 -57.86448,13.21079 z m 75.296414,-35.48162 C -94.621675,97.725511 -113.03536,80.545586 -130.27697,62.249602 -112.14956,52.466816 -93.349704,43.84961 -75.098859,34.249449 -120.00002,25.781886 -165.07268,17.928651 -210.02852,9.6386155 c 1.50159,5.0076065 12.05921,12.9077095 17.26732,18.7793295 6.13372,8.473999 17.38185,6.932215 26.4838,9.416503 9.45605,1.929056 19.42101,3.022351 28.56501,5.488044 -8.60251,4.772978 -17.68549,8.656585 -26.22944,13.540763 19.3711,19.630642 38.70914,39.322139 58.62115,58.402125 8.188245,1.79015 17.144044,0.45192 25.638144,0.7637 l 1.266013,-0.0316 z M -78.90714,1.2917523 c -0.427142,-9.336518 -9.813806,-16.5721453 -17.801636,-20.5416403 -4.717744,-3.500025 -22.672094,-5.736577 -11.561964,2.848895 8.03078,7.774112 17.26903,15.4033576 28.347735,18.0103711 z"
       id="path23" /><path
       style="fill:#705353"
       d="m -152.56474,151.4024 c -33.64117,-3.29624 -64.4062,-25.79801 -77.6521,-56.89734 -13.62017,-30.850307 -8.55079,-68.869006 12.88963,-94.95233045 22.94299,-29.90966455 64.8519,-43.41351155 100.84421,-32.01009355 38.114398,10.72177 67.006174,47.814368 67.305014,87.523198 1.238035,34.394097 -18.305561,68.565426 -48.584985,84.961696 -16.607539,9.31467 -35.893749,12.95201 -54.801769,11.37487 z m 75.289968,-35.49368 C -94.533605,97.654594 -112.82649,80.391812 -130.27497,62.319343 -112.08319,52.638722 -92.955561,44.026165 -75.113273,34.152247 -119.82441,25.66666 -164.82414,17.840937 -209.64507,9.602957 c -2.57353,2.306716 8.93538,9.679311 11.51521,13.638068 3.85701,3.55041 7.31569,7.85526 11.41806,10.940971 16.14635,3.186559 32.44692,5.646461 48.5329,9.066798 -8.39266,4.818052 -17.2939,8.694512 -25.76293,13.377225 13.78594,15.269842 28.96986,29.333461 43.44132,44.005221 5.23102,5.20309 10.46204,10.40618 15.69306,15.60927 9.170681,-0.1347 18.405778,0.34969 27.532678,-0.33179 z M -78.063165,2.0887227 c -0.668524,-9.5602279 -9.710171,-16.9911327 -17.848617,-21.2500757 -4.566068,-1.800587 -16.316898,-6.829083 -17.670558,-2.044707 9.70627,10.233384 21.009732,19.8517524 34.764099,23.9275931 z"
       id="path22" /><path
       style="fill:#e0150c"
       d="m -152.96162,151.14057 c -36.44917,-3.46254 -69.28134,-29.94509 -80.22818,-64.886206 -9.82313,-30.365866 -3.02895,-65.575981 18.19851,-89.5747463 23.80721,-28.5647857 65.38388,-40.5607177 100.6216,-28.4700417 38.13827,11.649639 66.19892,49.89507 65.237886,89.861812 0.08002,34.84111 -20.994929,68.883002 -52.587796,83.829052 -15.69417,8.24343 -33.73171,10.53018 -51.24202,9.24013 z m 75.686848,-35.23185 C -94.533605,97.654594 -112.82649,80.391812 -130.27497,62.319343 -112.08319,52.638722 -92.955561,44.026165 -75.113273,34.152247 -119.82441,25.66666 -164.82414,17.840937 -209.64507,9.602957 c -2.57353,2.306716 8.93538,9.679311 11.51521,13.638068 3.85701,3.55041 7.31569,7.85526 11.41806,10.940971 16.14635,3.186559 32.44692,5.646461 48.5329,9.066798 -8.39266,4.818052 -17.2939,8.694512 -25.76293,13.377225 13.78594,15.269842 28.96986,29.333461 43.44132,44.005221 5.23102,5.20309 10.46204,10.40618 15.69306,15.60927 9.170681,-0.1347 18.405778,0.34969 27.532678,-0.33179 z M -78.063165,2.0887227 c -0.668524,-9.5602279 -9.710171,-16.9911327 -17.848617,-21.2500757 -4.566068,-1.800587 -16.316898,-6.829083 -17.670558,-2.044707 9.70627,10.233384 21.009732,19.8517524 34.764099,23.9275931 z"
       id="path21" /><path
       style="fill:#dd1606"
       d="m -152.96162,151.14057 c -36.44917,-3.46254 -69.28134,-29.94509 -80.22818,-64.886206 -10.56542,-32.497809 -1.9046,-70.669596 22.92205,-94.4498141 18.80272,-19.3619129 46.0961,-29.7867069 73.01911,-27.8204499 35.00911,1.853392 67.558172,25.235995 80.847915,57.63639 14.799693,34.712613 5.898556,78.15421 -21.834059,103.91332 -18.709402,18.14212 -45.120036,27.65239 -71.094596,25.77933 -1.2115,-0.0379 -2.42404,-0.0679 -3.63224,-0.17257 z m 69.130699,-34.86796 c 13.484299,1.86227 -2.51471,-8.39069 -5.569765,-12.88588 C -102.96082,89.634577 -116.84647,76.198861 -130.27474,62.320015 -111.9874,52.88949 -93.544014,43.745264 -75.03886,34.751742 -81.125627,31.809169 -91.689685,31.49428 -99.496853,29.609409 -136.74187,22.682325 -174.07755,16.209955 -211.3007,9.2270062 c 3.09177,5.5204118 9.95085,10.0760448 14.4563,15.2928258 3.42978,3.11783 6.45,7.007671 10.12597,9.661463 16.14438,3.203205 32.45097,5.651374 48.53948,9.0675 -8.39266,4.817852 -17.2935,8.694801 -25.76293,13.376574 13.831,15.314963 29.0568,29.425449 43.57237,44.142701 5.27553,5.24829 10.55106,10.49659 15.82659,15.74489 6.903639,-0.10877 13.807415,-0.21643 20.711999,-0.24035 z M -76.814153,3.0220926 c -0.388179,-7.8747462 -7.081736,-14.0514096 -12.824187,-18.8947206 -7.61661,-5.186567 -17.53195,-9.22367 -26.67791,-7.787156 5.283,7.269921 13.02011,12.774072 19.998201,18.4656006 6.058989,3.3068692 12.709884,8.2517947 19.264531,9.0208522 z"
       id="path20" /><path
       style="fill:#da0000"
       d="m -152.96162,151.14057 c -34.34137,-3.34928 -65.68565,-26.91292 -78.15099,-59.134005 -13.58114,-33.678412 -5.54355,-75.302943 21.10172,-100.382114 18.63725,-19.161155 45.64148,-29.489325 72.30025,-27.657721 38.848796,1.714158 74.517441,30.3713314 84.818895,67.809987 10.208587,34.734305 -1.759083,74.957353 -29.943754,97.888873 -18.602811,15.83386 -43.406971,23.50001 -67.697781,21.60951 l -1.03235,-0.0422 z m 75.547865,-35.0267 C -81.913942,109.53409 -89.448644,103.603 -95.15443,97.327388 -106.66383,85.562474 -118.74086,74.27784 -129.90798,62.220474 -111.65763,52.681775 -92.803117,44.235206 -74.82499,34.203975 -82.16417,32.035136 -90.992709,31.099346 -98.943349,29.533276 -136.11892,22.631079 -173.35397,16.034949 -210.54881,9.2478282 c 0.58295,4.8193978 10.70811,11.4525348 14.87471,16.7830318 5.43852,7.841965 14.03007,10.228959 23.11901,10.958973 11.3095,2.114606 22.65735,4.05773 33.9547,6.211969 -8.23021,5.080118 -17.5934,8.343191 -25.60591,13.687191 19.28462,20.249875 39.46541,39.660894 59.2877,59.393337 9.158413,0.24325 18.350023,0.18569 27.504845,-0.16846 z M -76.14826,3.018369 c -4.067123,-16.02583 -20.534692,-25.995283 -36.34944,-27.349755 -12.94082,-2.231712 2.99716,7.557729 6.17658,11.068403 8.265475,7.8030392 18.366115,14.1391448 29.162624,17.5185274 l 0.811276,-0.2084223 z"
       id="path19" /><path
       style="fill:#d40000"
       d="m -152.96162,151.14057 c -36.44917,-3.46254 -69.28134,-29.94509 -80.22818,-64.886206 -10.6437,-32.853593 -1.80463,-71.855701 24.01189,-95.2779174 5.41001,-6.3725736 0.28193,2.4003646 2.52495,6.979006 -1.82506,4.0646799 -1.94645,9.8557805 -4.43782,13.0805584 -3.37588,4.627315 -3.36167,11.28919 -2.31616,17.374241 1.33194,6.557625 -0.96789,14.018228 2.76182,21.126821 6.25677,2.930579 1.44915,15.021636 8.10379,16.080976 4.73691,4.327938 4.28184,12.11889 9.03658,16.577077 6.00528,1.732416 1.13561,10.904525 6.56531,6.407835 2.84209,2.527952 4.39754,7.278763 7.39041,8.333084 4.72284,-0.668692 6.88506,5.963005 10.73329,7.438175 2.44819,-1.64007 5.81827,-3.58487 3.75392,1.55864 -0.0915,5.21551 5.54018,2.37028 6.59956,4.05165 5.18931,-3.29135 -5.12935,-10.045426 1.6601,-11.534152 5.51674,-4.501948 -1.17823,10.419602 6.48719,4.858572 1.69382,3.51694 2.88507,8.17818 0.97571,7.90174 -0.0716,3.64898 5.1629,2.41904 5.70417,5.55362 1.79524,-2.84619 11.32007,1.08844 16.47842,1.43067 0.96266,1.22614 -4.30647,3.22787 0.10812,3.24476 -4.57117,2.91289 3.4823,3.9727 5.4491,2.17395 4.87558,1.61982 6.89375,-3.7937 8.28712,1.69231 8.03163,0.17719 12.9625,-5.94255 20.378989,-8.70649 5.024097,-1.08229 22.034834,2.4642 11.729067,-5.48535 -8.57642,-4.78911 2.282011,-9.32241 5.41404,-12.93624 5.726044,-2.172239 8.811437,-6.529856 12.539343,-11.662774 2.711529,-1.847099 5.187161,-4.273975 8.450698,-5.971812 -0.514686,-3.684632 4.386863,-1.233918 2.044818,-3.687409 4.005819,-0.546854 -2.999942,13.57647 -4.186089,17.947375 -14.368092,34.95717 -51.843006,58.73339 -89.619616,56.56926 -2.13411,-0.0448 -4.27148,-0.0651 -6.40054,-0.23197 z m 37.53659,-24.8942 c -0.19114,-3.23457 -2.21159,1.78705 0,0 z m -16.7668,-4.93652 c -2.42592,-2.99516 -2.10971,2.37 0,0 z m -13.75833,-5.86729 c -1.16043,-1.00191 -0.57425,1.34293 0,0 z m -1.46651,-1.061 c -2.49638,-1.27127 0.27852,1.66221 0,0 z m 94.864424,-34.112975 c 0.331394,-2.18149 -1.609318,1.968334 0,0 z M -212.59349,7.0731278 c 0.43898,-1.2518578 -2.81851,1.5261125 0,0 z m 3.6725,-9.8837101 c -0.676,-0.9491702 -0.676,0.9491702 0,0 z m 68.74205,114.9130123 c 1.47916,-0.2284 -0.4549,0.45364 0,0 z m -0.61185,-1.14217 c 0.13047,-2.13705 1.1879,0.7936 0,0 z m 89.582349,-35.343932 c 0.170219,-1.019692 0.268369,1.204264 0,0 z m 0.559859,-2.888368 c 0.288364,-1.256529 0.155204,1.593704 0,0 z m -0.84533,-0.926041 c 0.675992,-0.949182 0.675997,0.94918 0,0 z m 1.343805,-2.271007 c 0.170218,-1.019693 0.268368,1.204262 0,0 z m 0.264583,-2.910417 c 0.170218,-1.019691 0.268367,1.204265 0,0 z m 0.322981,-3.02066 c 0.195216,-2.592021 0.195216,2.592021 0,0 z M -168.70433,57.498804 c 0.76206,-0.504182 0.61746,0.908777 0,0 z m 1.5875,-0.513552 c 0.676,-0.949169 0.676,0.949169 0,0 z m 117.354008,-1.569218 c 0.0966,-1.303114 0.843368,0.880234 0,0 z m 0.141881,-4.935122 c 0.170218,-1.019694 0.26837,1.204261 0,0 z m -0.264583,-2.645834 c 0.170218,-1.019691 0.268367,1.204265 0,0 z m -0.264583,-2.116667 c 0.170218,-1.019691 0.268367,1.204265 0,0 z m -0.932231,-5.5489 c -0.431173,-3.690501 0.947963,3.119135 0,0 z m -0.369798,-1.969676 c 0.231539,-1.192583 0.231539,1.192583 0,0 z m -1.156852,-4.894792 c -1.061654,-5.354527 0.875951,2.680564 0,0 z m -0.836613,-2.920645 c -0.693837,-1.936592 0.974748,1.239487 0,0 z m -5.552032,-3.480645 c -0.706849,-1.736699 1.655922,-0.0078 0,0 z m 3.032208,-3.604458 c -0.761737,-3.731114 1.176063,2.466131 0,0 z M -65.97985,21.729522 c 1.491514,-1.240349 0.929914,1.353365 0,0 z m -10.730481,-11.21555 c -0.126187,-1.5549984 1.34149,0.575693 0,0 z M -64.54425,9.7829933 c -0.05852,-2.5690972 1.518041,1.9656517 0,0 z m -6.661121,-5.4498255 c 0.652538,-0.9425209 0.319979,0.9673564 0,0 z M -83.773079,4.0685844 c 0.675995,-0.9491801 0.675994,0.9491803 0,0 z m 15.783715,-0.7484376 c -2.025532,-3.59783654 3.294191,2.3703116 0,0 z M -90.731179,1.1085445 c 0.756353,-3.8097009 0.668952,3.4030645 0,0 z m 16.086225,0.5787899 c 0.652538,-0.94252055 0.319979,0.9673563 0,0 z M -100.70641,-5.720999 c 0.65254,-0.9425202 0.31999,0.9673562 0,0 z m -2.2407,-0.3421401 c -0.28005,-2.3348459 0.88078,1.3911236 0,0 z m -1.06392,-2.2993774 c -0.19634,-2.6285225 1.70705,0.9666446 0,0 z m -3.31358,-2.3194195 c -1.01199,-5.618263 2.09148,2.4086408 0,0 z m 24.786253,-0.507118 c -0.873579,-2.288067 1.612078,0.85058 0,0 z m 2.38705,-0.216719 c -0.943947,-1.645549 1.744414,0.998075 0,0 z M -109.58567,-12.1014 c -1.04533,-3.82204 2.30271,2.9119439 0,0 z m -93.45386,-2.135875 c 0.96143,-1.388013 0.88958,1.177308 0,0 z m 1.79145,-1.309998 c 1.3542,-1.265408 2.66622,0.32437 0,0 z m 87.22431,-0.668865 c -0.35587,-1.525314 2.42152,0.05965 0,0 z m -84.18791,-0.89215 c 0.13245,-1.868283 1.46472,0.520711 0,0 z m 81.09869,-0.654166 c -4.2315,-3.501555 3.29337,0.563699 0,0 z m 28.841994,-0.161775 c 0.566782,-1.355309 0.971692,1.793898 0,0 z m -2.513542,0.0324 c 0.319976,-0.967357 0.65254,0.94252 0,0 z m -3.246658,-2.43086 c 0.961437,-1.388015 0.889565,1.177312 0,0 z m -28.481394,-0.444046 c -0.22335,-1.55101 0.80467,0.675582 4e-5,-3.3e-5 z m -71.85632,-0.38746 c 2.60733,-2.104642 2.65537,-0.942226 0,0 z m 94.588537,-1.500134 c 0.319982,-0.967355 0.65254,0.942519 0,0 z m -56.223957,-1.073949 c 0.76206,-0.504179 0.61746,0.908778 0,0 z m -28.31041,-1.058333 c 0.76205,-0.504186 0.61745,0.908787 0,0 z m 48.58794,0.09662 c -0.70685,-1.736704 1.65593,-0.0078 0,0 z m 34.1199,-0.304248 c 0.70413,-2.100035 0.80144,0.858729 0,0 z m -2.80368,-2.142388 c 0.50207,-1.332277 0.82183,0.959528 0,0 z m -12.83229,-0.280198 c 0.65254,-0.942522 0.31999,0.967357 0,0 z m -64.93316,-0.361036 c 3.48182,-2.171267 0.0352,0.530435 0,0 z m 66.91754,-0.115214 c 1.23359,-2.362355 1.41786,0.821976 0,0 z m 5.82083,-0.185209 c 0.71723,-1.228937 0.71723,1.228937 0,0 z m 4.3675,0.135323 c 0.66959,-0.483873 1.05337,0.852319 0,0 z m -47.06376,-0.212691 c 0.94906,-0.899755 1.39604,0.775077 0,0 z m 1.18272,-0.469183 c -1.45468,-3.217024 2.79108,2.183695 0,0 z m 28.46877,0.310244 c -0.35662,-2.457688 0.84511,1.507569 0,0 z m 3.51977,-0.557443 c 0.656,-1.394094 0.656,1.394094 0,0 z m -61.11875,0.04017 c 4.55901,-2.667005 6.37092,-1.333469 0,0 z m 22.59645,-0.478179 c 0.36465,-1.666015 1.66292,0.680295 0,0 z m 45.51951,0.01808 c 0.0473,-1.906385 1.65196,1.313732 0,0 z m 3.19112,-0.238499 c 0.66959,-0.483873 1.05337,0.852319 0,0 z m -62.66403,-0.444003 c -0.81487,-1.19824 1.16412,0.226318 0,0 z m 54.85695,-0.48507 c 2.53296,1.244021 -0.26121,-0.580919 0,0 z m -0.79375,-1.058333 c 0.59192,-1.31763 1.55034,1.427588 0,0 z m -19.69293,-0.366896 c 0.6083,-1.981525 1.68889,0.888037 0,0 z m -34.01749,-0.112188 c 5.10414,-2.433462 4.33179,-0.62633 0,0 z m 29.80973,-0.09419 c -1.08859,-2.887423 1.84829,0.829618 0,0 z m 23.49172,-0.06863 c -0.76772,-1.175364 1.91488,-0.134098 0,0 z m -29.35666,-1.342484 c 1.68269,-0.994831 1.25475,0.959791 0,0 z m 16.9473,0.0226 c 0.0846,-1.294816 1.19598,0.503353 0,0 z m -35.1374,-0.197827 c 1.45702,-0.429439 0.26443,0.463082 0,0 z m 2.05052,-0.353938 c 2.1612,-1.911027 0.37208,1.345908 0,0 z m 19.44688,-0.661458 c -1.29731,-5.313002 2.41081,2.737469 0,0 z m 9.78958,0.396875 c 0.676,-0.94919 0.676,0.94919 0,0 z m 8.40052,-0.175229 c 1.45702,-0.429439 0.26443,0.463082 0,0 z m -13.30619,-0.371541 c 0.11682,-2.076934 1.63579,1.646111 0,0 z m 8.59336,-0.223634 c 2.82382,-1.115733 3.54919,1.431277 0,0 z m 3.38991,0.330592 c 1.45702,-0.429436 0.26443,0.463079 0,0 z m -31.61267,-0.272709 c 1.74384,-0.391567 0.33862,0.43873 0,0 z m 1.5875,-0.264583 c 1.74384,-0.391567 0.33862,0.43873 0,0 z m 22.4184,-0.02943 c -1.86257,-1.100481 3.27768,-0.289256 0,0 z m -19.84375,-0.327467 c 7.92443,-0.854938 -1.68024,0.675718 0,0 z m 22.16194,0.08854 c 2.32014,-0.384309 0.47978,0.40824 0,0 z m -6.02235,-0.342037 c -2.64302,-0.81959 6.12077,0.599903 0,0 z m -11.57552,-0.192741 c 4.40654,-0.36635 0.87555,0.368349 0,0 z"
       id="path18" /><path
       style="fill:#6a3232"
       d="m -152.96162,151.14057 c -36.44917,-3.46254 -69.28134,-29.94509 -80.22818,-64.886206 -10.24881,-31.743151 -2.43858,-69.09558 21.39571,-92.8140651 -0.88056,1.4293079 -1.30616,7.9252566 -3.07605,10.2064645 -1.05007,7.1708026 -6.24511,13.1679046 -6.19306,20.1510046 -2.32622,5.508874 -1.88272,12.376565 -0.39254,17.892418 -1.5559,4.068153 3.65562,14.246095 2.25838,14.765899 -1.28551,-0.09463 2.82982,6.306942 2.92148,9.484274 2.23541,3.851967 5.33416,11.063041 5.18664,12.52704 1.90573,0.321615 3.35726,9.281374 5.73355,6.563686 -2.03314,1.560535 3.33842,5.197259 3.04928,5.556251 0.31433,1.982233 5.70752,5.911217 7.63942,8.65647 -2.37296,1.907324 5.04398,6.458944 6.31136,7.772744 1.6192,-0.84331 8.34982,4.43994 9.8935,7.43041 2.6549,1.85589 9.90357,2.49334 11.17765,5.32097 3.15253,1.73594 4.38582,0.0812 5.83627,2.98015 1.13259,-0.39062 7.09149,-0.27476 4.93495,2.21398 3.97962,-2.19615 11.26181,1.74751 17.28027,0.15814 3.92873,-5.58961 8.01855,1.9985 13.45854,1.41022 4.41708,-1.954 2.27818,3.88276 8.64595,1.65205 5.73609,-1.09089 11.13557,0.62003 17.205838,-2.38297 3.478627,-2.67023 8.08584,-6.2166 12.619532,-8.36789 2.738678,-2.73094 14.349752,1.19861 7.586672,-5.2597 4.466755,-3.80896 6.837031,-6.52964 11.202894,-9.57477 5.362752,-5.033191 8.237581,-12.682199 14.23527,-16.248508 -1.637788,8.45315 -6.447071,16.612788 -11.037641,24.031638 -18.030484,26.73562 -50.381195,43.15801 -82.676295,40.96575 -1.6572,-0.043 -3.31637,-0.0693 -4.96939,-0.20545 z m 22.88646,-23.90844 c -1.81637,-1.66695 -2.20825,1.60739 0,0 z m -6.33839,-1.47689 c -0.1925,-3.21394 -2.42343,1.53123 0,0 z m -31.08985,-4.75749 c -1.29448,-4.98924 -3.27706,-0.45286 0,0 z m -14.56239,-8.18541 c -0.31997,-0.96735 -0.65254,0.94251 0,0 z m -3.0427,-3.18466 c -2.33878,-1.35249 -3.89483,0.74715 0,0 z m -12.32166,-11.337449 c -0.48567,-1.822782 -1.36443,0.88321 0,0 z m -1.43668,-1.981957 c -1.6372,-3.272904 -1.46284,2.062795 0,0 z m -19.2189,-35.486564 c -1.46423,-1.348612 -0.35333,1.396472 0,0 z m 40.38557,52.5198 c 1.44607,-0.96863 0.98441,0.99355 0,0 z M -53.610579,84.914409 c 0.518398,-1.814938 0.252518,1.383126 0,0 z m 0.816398,-2.529157 c 0.512655,-2.182404 0.503067,0.375122 0,0 z M -180.08141,-28.861695 c 3.76802,-2.228801 1.43531,-0.05074 0,0 z m 10.98021,-3.988651 c 5.01324,-1.674033 -2.17607,1.335101 0,0 z m 32.21805,-3.216507 c 1.74384,-0.391567 0.33862,0.438729 0,0 z"
       id="path17" /><path
       style="fill:#cb0000"
       d="m -152.82933,151.14616 c -36.42274,-3.63724 -69.54221,-29.99001 -80.31552,-65.114831 -10.42169,-31.730821 -2.07517,-69.164888 21.63115,-92.8322254 -1.82026,2.5684656 -1.32118,7.9514954 -3.35644,10.4476598 -1.05007,7.1708026 -6.24511,13.1679046 -6.19306,20.1510046 -2.32622,5.508874 -1.88272,12.376565 -0.39253,17.892418 -1.55591,4.068153 3.65561,14.246095 2.25837,14.765899 -1.28551,-0.09463 2.82982,6.306942 2.92148,9.484274 2.23541,3.851967 5.33416,11.063041 5.18664,12.52704 1.90573,0.321615 3.35726,9.281374 5.73355,6.563686 -2.03314,1.560535 3.33842,5.197259 3.04928,5.556251 0.31433,1.982233 5.70752,5.911217 7.63942,8.65647 -2.37296,1.907324 5.04398,6.458944 6.31136,7.772744 1.6192,-0.84331 8.34982,4.43994 9.8935,7.43041 2.6549,1.85589 9.90357,2.49334 11.17766,5.32097 3.15252,1.73594 4.38581,0.0812 5.83626,2.98015 1.13259,-0.39062 7.09149,-0.27476 4.93495,2.21398 3.97962,-2.19615 11.26181,1.74751 17.28027,0.15814 3.92873,-5.58961 8.01855,1.9985 13.45854,1.41022 4.41708,-1.954 2.27818,3.88276 8.64595,1.65205 5.73609,-1.09089 11.13557,0.62003 17.205838,-2.38297 3.478627,-2.67023 8.08584,-6.2166 12.619532,-8.36789 2.738678,-2.73094 14.349752,1.19861 7.586672,-5.2597 4.466755,-3.80896 6.837031,-6.52964 11.202894,-9.57477 5.362752,-5.033191 8.237581,-12.682199 14.23527,-16.248508 -1.528607,8.328683 -6.336659,16.291768 -10.848489,23.577018 -17.986806,26.70246 -50.110457,43.46987 -82.433557,41.3932 -1.75681,-0.0288 -3.5165,-0.029 -5.26899,-0.17269 z m 22.75417,-23.91403 c -1.81637,-1.66695 -2.20825,1.60739 0,0 z m -6.33839,-1.47689 c -0.1925,-3.21394 -2.42343,1.53123 0,0 z m -31.08985,-4.75749 c -1.29448,-4.98924 -3.27706,-0.45286 0,0 z m -14.56239,-8.18541 c -0.31997,-0.96735 -0.65254,0.94251 0,0 z m -3.0427,-3.18466 c -2.33878,-1.35249 -3.89483,0.74715 0,0 z m -12.32166,-11.337449 c -0.48567,-1.822782 -1.36443,0.88321 0,0 z m -1.43668,-1.981957 c -1.6372,-3.272904 -1.46284,2.062795 0,0 z m -19.2189,-35.486564 c -1.46423,-1.348612 -0.35333,1.396472 0,0 z m 40.38557,52.5198 c 1.44607,-0.96863 0.98441,0.99355 0,0 z M -53.610579,84.914409 c 0.518398,-1.814938 0.252518,1.383126 0,0 z m 0.816398,-2.529157 c 0.512655,-2.182404 0.503067,0.375122 0,0 z M -180.08141,-28.861695 c 3.76802,-2.228801 1.43531,-0.05074 0,0 z m 10.98021,-3.988651 c 5.01324,-1.674033 -2.17607,1.335101 0,0 z m 32.21805,-3.216507 c 1.74384,-0.391567 0.33862,0.438729 0,0 z"
       id="path16" /><path
       style="fill:#c20000"
       d="m -152.82933,151.14616 c -36.42274,-3.63724 -69.54221,-29.99001 -80.31552,-65.114831 -9.96234,-30.279144 -2.76754,-65.484961 18.29924,-89.4018793 -1.02652,4.424634 -4.34652,13.3521996 -6.40875,19.5203823 -2.12439,7.851005 -4.81243,15.567178 -3.75184,23.639758 -0.49321,7.69677 1.78818,13.323897 2.48881,20.424111 3.00102,7.823308 3.99894,17.313749 9.09815,23.487635 4.44583,3.646822 4.8583,11.82264 9.37342,13.645353 3.90772,5.370431 8.25728,11.381761 13.29772,14.684931 5.30716,2.99981 8.32105,7.34323 14.29555,8.29481 3.64321,2.21914 4.49512,6.23015 9.68226,4.76458 2.43937,4.1724 8.68287,1.45263 11.61769,5.75063 8.50387,1.83393 17.5025,-3.23425 26.19207,-0.44177 8.66637,1.55374 17.35838,-1.29505 25.94921,-0.90719 6.670946,-2.69563 12.70646,-6.53119 17.797555,-11.41093 4.799131,-0.49509 7.453876,-2.00159 8.71064,-5.58884 6.0365,-6.60738 12.81285,-12.604312 18.362356,-19.439243 6.980741,-9.312762 -1.138583,7.048293 -3.225405,10.718003 -16.91436,30.2182 -51.460576,49.79761 -86.194766,47.54722 -1.75656,-0.0288 -3.51723,-0.029 -5.26839,-0.17273 z m -26.45833,-180.547367 c 2.95325,-1.482952 -1.66244,1.413963 0,0 z"
       id="path15" /><path
       style="fill:#bb0000"
       d="m -152.82933,151.14616 c -36.42274,-3.63724 -69.54221,-29.99001 -80.31552,-65.114831 -9.34724,-28.669148 -3.65553,-62.114964 15.36527,-85.59117003 -1.1316,5.26087943 -2.99004,11.40190803 -5.42886,17.14213503 -1.87433,8.734207 -4.95877,17.48575 -4.26796,26.454692 1.2e-4,6.093347 -0.70572,14.140701 3.05765,14.47237 -4.1698,1.037734 0.85787,7.390751 1.84609,12.039852 2.21305,4.824675 2.81376,10.073845 4.88467,13.831917 4.66487,3.802457 5.24966,10.921709 9.66378,15.205095 2.03456,2.93244 5.6974,8.70078 11.23663,10.28871 1.09832,6.31404 7.03231,8.70712 11.29405,11.31763 3.77492,1.54539 7.73328,5.97923 12.40563,6.89926 7.48092,0.45384 15.34934,7.54437 23.3732,6.10655 4.62196,1.24934 10.42094,-2.21153 14.58342,1.86896 2.73509,-1.09508 4.68301,2.63875 4.61389,-1.71084 6.40028,3.12745 11.32987,-2.10071 18.60758,-2.17214 9.61999,-1.08409 19.064601,-4.13668 25.5727,-11.54127 7.651835,-1.26828 11.185605,-8.7309 16.814972,-13.0937 4.492293,-3.22705 9.626323,-11.539699 12.774362,-13.080625 -14.527755,34.692345 -51.480134,58.839925 -89.236154,56.860995 -2.28188,-0.025 -4.56878,-0.01 -6.8454,-0.18359 z m -19.05,-22.16593 c -0.99633,-1.53496 -0.53281,0.82728 0,0 z M -217.38766,-0.38222574 c 1.32358,-2.11948916 1.78974,-0.23001414 0,0 z"
       id="path14" /><path
       style="fill:#b30000"
       d="m -152.82933,151.14616 c -36.42274,-3.63724 -69.54221,-29.99001 -80.31552,-65.114831 -9.08787,-27.755501 -3.93369,-59.749841 13.43301,-83.2191208 0.25212,5.3988507 -4.53589,13.2840558 -6.02513,20.1740848 -2.31238,8.261745 -2.96087,16.26636 -3.01783,24.834399 0.10461,6.818708 1.12268,14.479662 2.99351,20.688111 -1.57417,3.11803 4.88001,6.429755 4.87196,11.311153 1.18786,6.783717 4.19902,9.58236 6.54218,15.048431 3.38808,3.073194 1.79708,5.046682 6.16551,9.180943 0.47378,4.00863 8.578,6.23383 9.02848,8.25027 0.10295,4.03268 7.68591,6.02392 9.85434,9.20568 2.81266,-0.34839 5.1039,4.07981 9.15978,5.39838 3.43134,4.05547 10.31219,2.77495 11.90859,5.62983 4.82296,2.04867 6.03081,3.34648 10.51266,2.76844 4.75923,2.19126 9.49767,-0.0389 13.42464,1.43045 3.10917,0.62913 7.19535,-0.27863 9.08823,1.06475 5.10165,-0.26228 11.92469,-1.91545 17.27889,-1.84043 5.9086,-1.5179 10.6006,-2.90791 17.14864,-4.50717 7.597046,-1.9764 12.579327,-8.75364 19.41012,-11.62897 6.823112,-5.21487 12.34584,-12.03466 18.760878,-17.74825 2.716156,-3.668075 7.728848,-10.323126 2.987857,-1.62409 -16.121944,32.08755 -51.970475,53.20389 -87.942035,50.87081 -1.75672,-0.0289 -3.51665,-0.0288 -5.26876,-0.17287 z m -37.63146,-30.71051 c -1.20139,-1.4439 -0.15615,1.11034 0,0 z m 23.60855,11.58984 c 2.25729,-2.79027 1.80775,1.32624 0,0 z m -57.01771,-59.429821 c 0.67817,-0.979988 1.01713,0.948585 0,0 z m -0.79109,-2.385566 c 1.06723,-0.510137 0.59945,0.91914 0,0 z"
       id="path13" /><path
       style="fill:#552c2c"
       d="m -152.82933,151.14616 c -36.42274,-3.63724 -69.54221,-29.99001 -80.31552,-65.114831 -8.72456,-26.66213 -4.34351,-57.355247 11.53143,-80.4241121 -1.90314,9.5494421 -6.19899,19.0695511 -7.48483,29.0380231 -1.45288,9.747241 -0.67949,19.442084 0.88835,29.040777 1.0713,7.35736 2.65577,15.763781 6.4774,21.772255 1.80283,4.849997 3.37575,6.404184 5.52985,12.324216 1.93693,1.398041 3.2385,1.84886 3.02699,5.436192 3.20731,-0.77417 1.65477,6.43581 5.51927,4.77935 -0.30283,2.24848 3.578,3.61982 3.90349,6.28991 3.9427,-2.32926 4.90855,5.93309 8.19307,4.96567 1.22922,-0.55541 0.41181,6.20151 2.20708,1.98372 -0.14483,5.30774 3.78863,-1.49745 3.92566,5.28433 3.40402,-1.93853 8.01249,3.75485 9.42464,3.49123 -1.21679,2.34829 7.436,1.41074 8.35989,4.67925 2.34442,-2.14248 6.59101,0.77381 3.94032,2.72628 3.11792,0.0282 4.96628,-1.59462 3.23354,0.92469 5.92781,0.36791 11.12591,1.38791 16.72405,1.34599 2.88412,-2.6186 9.68882,4.30297 15.11532,-0.18231 6.70825,-0.23749 14.39294,-0.74701 21.35501,-3.67491 7.78489,-2.71434 16.340948,-4.09932 22.368583,-10.03146 5.793919,-4.00551 12.576543,-7.42866 17.313081,-13.51452 3.26083,-3.4195 10.966267,-10.95572 11.752257,-11.43648 -16.180347,31.87719 -51.915071,52.78581 -87.720471,50.46949 -1.75659,-0.0288 -3.51706,-0.0289 -5.26846,-0.17275 z m -16.21732,-14.81359 c -1.26975,-3.48394 -0.74147,1.19903 0,0 z m -16.33231,-8.16456 c -0.90693,-3.11778 -1.89103,0.62273 0,0 z m -5.81495,-2.92025 c -1.0171,-0.9486 -0.6782,0.97999 0,0 z m -5.55625,-4.4518 c -2.9854,-4.62551 -3.63581,0.76874 0,0 z m -4.1133,-3.46588 c -0.45141,-4.24762 -2.21869,1.15254 0,0 z m 28.45497,15.85518 c 0.67596,-0.94919 0.67601,0.94918 0,0 z m -21.69584,-12.71562 c 0.76206,-0.50419 0.61746,0.90878 0,0 z m -18.25625,-17.97605 c 0.676,-0.94916 0.676,0.94916 0,0 z m -3.29332,-5.533656 c 0.0846,-1.294816 1.19598,0.503354 0,0 z"
       id="path12" /><path
       style="fill:#ac0000"
       d="m -150.30211,151.23455 c -34.2676,-2.54246 -66.19368,-25.01258 -79.54828,-56.772016 -12.35703,-28.376497 -9.38317,-62.989852 7.97191,-88.6802117 -0.81626,7.9419827 -5.85753,17.9919067 -6.91642,27.0766197 -1.55913,9.745617 -1.46084,19.667249 0.47592,29.276001 0.54915,7.958828 2.91532,16.189825 6.16548,23.160726 2.57207,4.370105 2.98529,6.189109 5.69178,11.472152 1.13673,3.10374 3.87837,2.014607 3.28606,6.450859 3.20731,-0.77417 1.65477,6.43581 5.51927,4.77935 -0.30283,2.24848 3.578,3.61982 3.90349,6.28991 3.9427,-2.32926 4.90855,5.93309 8.19307,4.96567 1.22922,-0.55541 0.41181,6.20151 2.20708,1.98372 -0.14483,5.30774 3.78863,-1.49745 3.92566,5.28433 3.40402,-1.93853 8.01249,3.75485 9.42464,3.49123 -1.21679,2.34829 7.436,1.41074 8.35989,4.67925 2.34442,-2.14248 6.59101,0.77381 3.94032,2.72628 3.11792,0.0282 4.96628,-1.59462 3.23354,0.92469 5.92781,0.36791 11.12591,1.38791 16.72405,1.34599 2.88412,-2.6186 9.68882,4.30297 15.11532,-0.18231 6.70825,-0.23749 14.39294,-0.74701 21.35501,-3.67491 7.78489,-2.71434 16.340948,-4.09932 22.368583,-10.03146 5.793919,-4.00551 12.576543,-7.42866 17.313081,-13.51452 3.26083,-3.4195 10.966267,-10.95572 11.752257,-11.43648 -15.841447,31.27763 -50.571991,51.76496 -85.626701,50.44316 -1.60947,-0.0168 -3.2311,0.0984 -4.83501,-0.058 z m -18.74454,-14.90198 c -1.26975,-3.48394 -0.74147,1.19903 0,0 z m -16.33231,-8.16456 c -0.90693,-3.11778 -1.89103,0.62273 0,0 z m -5.81495,-2.92025 c -1.0171,-0.9486 -0.6782,0.97999 0,0 z m -5.55625,-4.4518 c -2.9854,-4.62551 -3.63581,0.76874 0,0 z m -4.1133,-3.46588 c -0.45141,-4.24762 -2.21869,1.15254 0,0 z m 28.45497,15.85518 c 0.67596,-0.94919 0.67601,0.94918 0,0 z m -21.69584,-12.71562 c 0.76206,-0.50419 0.61746,0.90878 0,0 z m -18.25625,-17.97605 c 0.676,-0.94916 0.676,0.94916 0,0 z m -3.29332,-5.533656 c 0.0846,-1.294816 1.19598,0.503354 0,0 z"
       id="path11" /><path
       style="fill:#a30000"
       d="m -150.30211,151.23455 c -34.2676,-2.54246 -66.19368,-25.01258 -79.54828,-56.772016 -11.36901,-26.09985 -9.7467,-57.395516 4.04035,-82.290761 2.69485,-5.1190343 4.41492,-7.0223214 1.5342,-0.562563 -5.50047,16.302949 -8.24545,33.692438 -5.87889,50.859288 1.3043,8.725979 3.81444,17.207161 7.24268,25.382083 3.28312,8.782279 8.26823,15.914819 13.36237,23.697279 4.54254,3.33779 8.50565,11.32612 11.95803,12.96959 1.46623,-1.01552 3.31531,6.56523 8.53467,5.2169 4.14796,4.24203 10.52944,5.36965 15.17945,8.07204 6.26863,-0.17154 10.29833,2.93404 15.81168,3.9476 7.55374,-0.37404 15.24431,1.26446 22.43656,0.82685 9.17483,-1.52282 18.9238,-2.42361 27.91142,-6.1863 7.982318,-2.92058 16.484934,-5.82734 22.172062,-12.52841 7.659828,-1.46143 13.222354,-10.07283 18.970646,-15.28856 3.729553,-2.26692 7.556062,-9.127729 3.095223,-1.18405 -17.250313,27.55947 -49.394541,45.12186 -81.986881,43.89929 -1.60969,-0.017 -3.2307,0.0987 -4.83529,-0.0583 z"
       id="path10" /><path
       style="fill:#9b0000"
       d="m -150.30211,151.23455 c -34.2676,-2.54246 -66.19368,-25.01258 -79.54828,-56.772016 -10.3356,-23.814962 -9.98455,-52.070299 0.77934,-75.686014 1.49416,-4.81532 5.79614,-9.9333081 2.15374,-1.796266 -5.36962,18.289777 -6.46858,37.989858 -2.33344,56.667469 1.66832,8.232871 4.98754,15.904274 8.25042,23.637925 5.48,9.369782 11.48459,18.660092 19.80029,25.758852 5.75258,6.93119 14.65071,10.57668 22.75335,14.35304 9.64137,4.56509 20.32536,6.27301 30.90897,6.73659 11.11114,1.17038 22.52106,-1.29978 33.23438,-4.20493 9.91154,-4.19366 21.160435,-6.83398 28.836732,-14.90446 6.461327,-1.4982 12.298292,-8.84869 17.58287,-13.55976 3.308716,-3.87447 7.842321,-8.49906 2.456818,-1.11286 -17.625542,25.88576 -48.64679,42.09808 -80.03996,40.94034 -1.60979,-0.0167 -3.23019,0.0982 -4.83523,-0.0579 z M -225.06058,10.84669 c 0.31728,-1.7171362 0.97312,0.964297 0,0 z"
       id="path9" /><path
       style="fill:#930000"
       d="m -150.30211,151.23455 c -34.2676,-2.54246 -66.19368,-25.01258 -79.54828,-56.772016 -10.73495,-24.73734 -9.93277,-54.24474 2.04886,-78.405513 2.87088,-5.334596 -2.41492,7.739476 -2.14742,10.228078 -4.59622,20.273454 -3.03358,41.937742 4.05039,61.468469 3.91598,10.431347 9.85045,19.904292 16.52376,28.776362 5.97173,6.85226 12.9177,13.85275 21.54957,17.71366 12.60529,7.27005 27.08279,10.46997 41.56821,10.98127 8.16833,0.90614 17.0279,-1.10062 25.30998,-2.65657 11.20585,-2.37069 21.763857,-7.23696 31.617711,-12.86649 6.985371,-4.72458 14.569883,-9.26469 20.108333,-15.83108 2.118506,-2.09142 6.792359,-7.67931 2.280294,-1.38871 -18.064883,25.07039 -48.888348,40.24224 -79.808988,38.82271 -1.18346,-0.0161 -2.3735,0.0661 -3.55242,-0.0702 z"
       id="path8" /><path
       style="fill:#8b0000"
       d="m -150.30211,151.23455 c -34.2676,-2.54246 -66.19368,-25.01258 -79.54828,-56.772016 -10.3841,-23.975212 -10.02787,-52.495555 1.04403,-76.178009 -0.26431,2.934198 -3.4086,13.395986 -3.92516,19.276667 -1.00566,12.506133 -0.82215,25.361607 2.43466,37.516599 2.38329,13.156483 8.59943,25.297999 15.92498,36.279339 8.91706,13.75971 22.7158,23.64226 37.9528,29.21984 12.89517,4.56045 26.83173,6.30704 40.47914,5.27468 14.61573,-1.40802 28.85677,-5.64352 41.791175,-12.51612 7.160682,-4.71574 14.846066,-8.43654 20.959019,-14.65867 8.507124,-8.82403 -3.100931,6.01363 -6.471087,7.99533 -18.31327,16.89637 -43.370827,25.82924 -68.232617,24.63692 l -1.71513,-0.0173 z"
       id="path7" /><path
       style="fill:#830000"
       d="m -150.30211,151.23455 c -34.2676,-2.54246 -66.19368,-25.01258 -79.54828,-56.772016 -9.84449,-22.752791 -10.0786,-49.654983 -0.49665,-72.534574 -2.23304,10.702686 -4.83002,21.539486 -3.44746,32.558633 0.27537,20.671717 7.32762,40.91942 19.18496,57.796577 6.584,10.44541 16.66495,18.56319 27.43729,24.46217 22.03284,11.50537 48.53401,12.80155 72.20845,5.94439 15.674905,-4.51619 30.154283,-12.77893 42.452785,-23.46256 -18.179603,21.23866 -46.332935,33.25295 -74.238675,32.0775 -1.18348,-0.0161 -2.37339,0.066 -3.55242,-0.0701 z m 78.170697,-32.73367 c 0.628012,-1.38825 0.228958,1.39756 0,0 z"
       id="path6" /><path
       style="fill:#770000"
       d="m -150.30211,151.23455 c -34.2676,-2.54246 -66.19368,-25.01258 -79.54828,-56.772016 -9.0456,-20.80473 -9.92389,-45.078825 -2.77388,-66.577002 2.07886,-3.882739 -2.67348,10.115271 -1.94363,13.433897 -1.90501,24.994643 4.65974,50.750521 19.02085,71.353301 9.14612,13.49245 23.01996,23.79181 38.20555,29.50836 13.81332,4.88248 28.76586,6.57875 43.37242,5.25184 19.75928,-2.23977 38.961786,-9.63862 54.636475,-21.93101 3.383885,-1.28632 -6.924638,6.86321 -9.362219,8.43903 -17.063626,12.31704 -38.225496,18.26803 -59.198266,17.36819 l -1.71513,-0.0173 -0.69353,-0.0573 z"
       id="path5" /><path
       style="fill:#680000"
       d="m -150.30211,151.23455 c -34.2676,-2.54246 -66.19368,-25.01258 -79.54828,-56.772016 -7.85336,-17.606781 -9.13928,-37.646916 -5.63656,-56.461137 0.1561,4.599966 -1.16912,16.876648 0.25008,24.271367 1.92965,20.900688 10.32658,41.175856 23.66034,57.364166 13.07029,14.86513 31.38646,24.70588 50.7953,27.84058 22.16421,3.65019 45.43875,-0.007 65.234192,-10.60841 3.964583,-2.01788 12.478584,-6.81267 4.211754,-1.11428 -17.333266,11.6918 -38.200156,16.65523 -58.966826,15.47973 z m 63.885005,-19.30607 c 2.1306,-2.40411 2.230213,-0.30693 0,0 z m 2.760741,-2.32351 c 2.381756,-1.25206 -1.234494,1.44357 0,0 z"
       id="path4" /><path
       style="fill:#570000"
       d="m -150.30211,151.23455 c -34.2676,-2.54246 -66.19368,-25.01258 -79.54828,-56.772016 -6.96667,-15.531525 -8.73206,-32.996581 -6.61167,-49.780407 -2.26039,33.247245 11.24165,68.270123 38.53196,88.319153 27.08055,19.25469 64.11776,21.5266 94.34425,8.61913 4.117887,-1.84693 12.931561,-5.97109 4.06689,-1.08924 -15.43237,8.57721 -33.28947,11.51668 -50.78315,10.70338 z m 56.342572,-14.08054 c 0.652522,-0.94254 0.32,0.96736 0,0 z"
       id="path3" /><path
       style="fill:#480101"
       d="m -150.30211,151.23455 c -10.90021,-1.08665 -21.96589,-3.48386 -31.71366,-8.4465 25.06696,10.48904 54.28043,9.92014 79.19269,-0.7206 -14.50878,7.66724 -31.25123,9.8028 -47.47903,9.1671 z m -33.6819,-9.1118 c -2.1506,-1.77671 2.78547,1.14781 0,0 z m -2.97657,-1.52916 c -1.02236,-1.05357 2.13256,0.97571 0,0 z m -3.05828,-1.73439 c -1.30132,-1.16509 1.92618,1.21119 0,0 z m -2.49797,-1.46425 c -1.59158,-1.50972 2.35943,1.67088 0,0 z m -2.05459,-1.2202 c -3.51663,-2.78969 3.99953,2.31579 0,0 z m -2.83833,-1.92813 c 0.66959,-0.48387 1.0534,0.85232 0,0 z m -5.45958,-4.17022 c -0.85814,-1.21755 1.47628,1.39154 0,0 z m -1.82336,-1.52741 c -0.67378,-1.25553 1.49438,1.37337 0,0 z m -2.02173,-1.68668 c -3.59356,-2.25407 -14.08579,-15.82509 -5.4533,-6.06401 0.63728,1.00787 9.46613,9.04767 5.4533,6.06401 z m -10.04272,-10.82321 c -12.76966,-15.84598 -20.66835,-36.067147 -20.41615,-56.540306 1.12863,20.399625 8.78236,40.115872 20.80583,56.569496 l -0.38996,-0.0292 z m -20.45338,-64.499855 c 0.17023,-1.019691 0.26833,1.204269 0,0 z"
       id="path2" /><path
       style="fill:#3b0404"
       d="m -150.30211,151.23455 c -3.78728,0.0804 -22.65313,-3.94466 -10.2317,-1.80838 12.29277,2.27707 24.94106,1.55837 37.23081,-0.29653 -8.78222,2.32112 -17.98189,2.20784 -26.99911,2.10491 z m 27.89987,-2.27582 c 5.73841,-2.2343 8.52078,-1.28635 0,0 z m -45.11146,-0.69222 c -0.83792,-0.87568 3.23839,0.90075 0,0 z m -2.03399,-0.70991 c 1.47916,-0.2284 -0.4549,0.45364 0,0 z m 60.50691,-2.6702 c 1.72884,-1.17854 1.54311,-8e-5 -0.0331,0.15049 z m -109.75799,-31.19212 c -0.81491,-1.19824 1.16412,0.22634 0,0 z m -2.19218,-3.06475 c -2.42033,-3.429 1.14295,0.66883 0,0 z m -2.67944,-4.24488 c -3.72472,-5.77548 2.49265,2.5905 0,0 z m -3.91024,-7.264502 c -2.35029,-3.906853 -7.11037,-16.116814 -6.06891,-16.401133 1.05522,6.020022 7.88995,18.941405 7.71424,19.717935 l -0.75255,-1.49329 z m -7.24864,-19.571579 c -2.47084,-9.102749 1.01077,0.02951 0,0 z m -1.47217,-7.019046 c -1.12788,-5.860943 1.2961,3.98706 0,0 z m -0.88819,-7.871354 c 0.23154,-1.192585 0.23154,1.192583 0,0 z"
       id="path1" /></g></svg>
